<svg width="2675" height="1075" viewBox="0 0 2675 1075" fill="none" xmlns="http://www.w3.org/2000/svg">
<g clip-path="url(#clip0_60_252)">
<path fill-rule="evenodd" clip-rule="evenodd" d="M894.84 241.566C755.114 258.846 650.128 378.005 650.128 518.731C650.128 659.456 755.114 778.615 894.84 795.895C906.3 797.294 917.849 798.016 929.444 798.016C941.039 798.016 952.544 797.294 964.049 795.895C1103.77 778.615 1208.76 659.456 1208.76 518.731C1208.76 378.005 1103.82 258.846 964.049 241.566C952.589 240.167 941.039 239.445 929.444 239.445C917.849 239.445 906.345 240.167 894.84 241.566ZM959.447 352.919C1039.57 367.222 1097.91 437.426 1097.91 518.731C1097.91 600.035 1038.4 671.458 957.236 684.903C948.032 686.437 938.738 687.204 929.444 687.204C920.15 687.204 910.811 686.437 901.653 684.903L899.307 684.497C819.225 670.149 760.98 599.944 760.98 518.685C760.98 437.426 820.488 365.958 901.653 352.513C910.856 350.979 920.15 350.212 929.444 350.212C938.738 350.212 948.078 350.979 957.236 352.513L959.447 352.874V352.919Z" fill="url(#paint0_linear_60_252)"/>
<path fill-rule="evenodd" clip-rule="evenodd" d="M1507.16 365.327C1560.71 377.373 1599.33 425.47 1599.33 480.425V775.772C1599.33 778.795 1601.81 781.232 1604.79 781.232H1701.7C1704.73 781.232 1707.16 778.75 1707.16 775.772V480.425C1707.16 369.433 1625.37 274.142 1515.73 257.222C1504.36 255.462 1492.86 254.605 1481.35 254.605C1469.85 254.605 1458.34 255.462 1447.02 257.222C1337.34 274.142 1255.59 369.433 1255.59 480.425V775.772C1255.59 778.795 1258.07 781.232 1261.05 781.232H1357.96C1360.98 781.232 1363.42 778.75 1363.42 775.772V480.425C1363.42 425.47 1402.04 377.373 1455.59 365.327C1464.03 363.432 1472.69 362.484 1481.35 362.484C1490.02 362.484 1498.68 363.432 1507.12 365.327H1507.16Z" fill="url(#paint1_linear_60_252)"/>
<path fill-rule="evenodd" clip-rule="evenodd" d="M2542.94 244.363C2539.97 244.363 2537.49 246.8 2537.49 249.823V763.861C2537.49 766.839 2539.92 769.32 2542.94 769.32H2639.54C2642.52 769.32 2645 766.884 2645 763.861V249.823C2645 246.845 2642.56 244.363 2639.54 244.363H2542.94Z" fill="url(#paint2_linear_60_252)"/>
<path fill-rule="evenodd" clip-rule="evenodd" d="M924.12 462.062C888.749 462.062 860.1 490.712 860.1 526.085C860.1 561.458 888.749 590.109 924.12 590.109C959.492 590.109 988.141 561.458 988.141 526.085C988.141 490.712 959.492 462.062 924.12 462.062Z" fill="url(#paint3_linear_60_252)"/>
<path fill-rule="evenodd" clip-rule="evenodd" d="M309.499 439.006C274.127 439.006 245.479 467.656 245.479 503.029C245.479 538.403 274.127 567.053 309.499 567.053C344.87 567.053 373.519 538.403 373.519 503.029C373.519 467.656 344.87 439.006 309.499 439.006Z" fill="url(#paint4_linear_60_252)"/>
<path fill-rule="evenodd" clip-rule="evenodd" d="M269.571 188.236C115.633 207.276 0 338.571 0 493.6C0 648.628 115.633 779.923 269.571 798.918C282.203 800.498 294.926 801.265 307.694 801.265C320.462 801.265 333.14 800.498 345.818 798.918C499.755 779.878 615.388 648.628 615.388 493.6V27.7482C615.388 24.3643 612.591 21.5669 609.208 21.5669H499.529C496.146 21.5669 493.348 24.3643 493.348 27.7482V493.6C493.348 584.153 427.794 661.848 338.373 676.646C328.267 678.316 318.026 679.173 307.739 679.173C297.453 679.173 287.211 678.316 277.105 676.646L274.534 676.24C186.331 660.404 122.13 583.115 122.13 493.6C122.13 404.084 187.684 325.352 277.105 310.553C287.211 308.883 297.498 308.026 307.739 308.026C317.981 308.026 328.222 308.883 338.373 310.553L340.81 310.959C369.549 316.102 396.619 328.014 419.854 345.655C421.839 347.144 424.14 347.37 426.351 346.287C428.561 345.204 429.779 343.219 429.779 340.737V215.172C429.779 212.555 428.381 210.479 425.99 209.441C400.409 198.793 373.384 191.71 345.908 188.281C333.275 186.702 320.552 185.935 307.784 185.935C295.017 185.935 282.339 186.702 269.661 188.281L269.571 188.236Z" fill="url(#paint5_linear_60_252)"/>
<path fill-rule="evenodd" clip-rule="evenodd" d="M2081.81 57.6167C1900.62 79.9956 1764.55 234.527 1764.55 416.988C1764.55 599.448 1900.67 753.98 2081.81 776.359C2096.7 778.209 2111.68 779.111 2126.65 779.111C2141.63 779.111 2156.61 778.164 2171.5 776.359C2203.89 772.343 2235.66 763.996 2265.79 751.453C2268.64 750.28 2270.26 747.799 2270.26 744.731V596.921C2270.26 593.989 2268.82 591.688 2266.2 590.379C2263.58 589.071 2260.88 589.341 2258.58 591.101C2230.42 612.487 2197.58 626.655 2162.7 632.43C2150.79 634.415 2138.75 635.408 2126.65 635.408C2114.56 635.408 2102.52 634.415 2090.61 632.43L2087.58 631.934C1983.77 613.3 1908.2 522.34 1908.2 416.943C1908.2 311.545 1985.39 218.916 2090.61 201.455C2102.52 199.47 2114.56 198.477 2126.65 198.477C2138.75 198.477 2150.79 199.47 2162.7 201.455L2165.54 201.907C2269.45 220.45 2345.11 311.455 2345.11 416.898V760.387C2345.11 764.402 2348.4 767.651 2352.37 767.651H2481.5C2485.51 767.651 2488.76 764.357 2488.76 760.387V416.898C2488.76 234.437 2352.64 79.9053 2171.5 57.5264C2156.61 55.6765 2141.63 54.7742 2126.65 54.7742C2111.68 54.7742 2096.7 55.6765 2081.81 57.5264V57.6167Z" fill="url(#paint6_linear_60_252)"/>
<path d="M314.101 891.908C429.328 945.193 549.879 992.568 676.611 969.332C707.516 963.511 738.015 955.48 767.656 944.787C805.689 932.199 841.151 915.099 879.229 901.112C867.003 926.785 850.896 950.427 831.857 971.543C772.213 1038.09 683.424 1077.89 593.642 1074.82C476.204 1071.35 360.525 999.246 314.146 891.908H314.101Z" fill="url(#paint7_linear_60_252)"/>
<path d="M880.854 994.012C869.123 963.331 862.266 934.726 837.587 915.099C821.435 902.33 806.096 897.142 785.387 886.178C814.487 867.995 855.182 872.823 878.462 900.12C900.705 926.063 902.284 967.392 880.854 994.012Z" fill="url(#paint8_linear_60_252)"/>
<path d="M2455.06 48.0064C2489.12 41.3739 2495.71 34.7415 2502.39 0.676782C2502.57 -0.225594 2503.87 -0.225594 2504.05 0.676782C2510.69 34.7415 2517.32 41.3288 2551.38 48.0064C2552.28 48.1869 2552.28 49.4953 2551.38 49.6758C2517.32 56.3082 2510.73 62.9407 2504.05 97.0054C2503.87 97.9077 2502.57 97.9077 2502.39 97.0054C2495.75 62.9407 2489.12 56.3534 2455.06 49.6758C2454.16 49.4953 2454.16 48.1869 2455.06 48.0064Z" fill="url(#paint9_linear_60_252)"/>
<path d="M2442.61 158.367C2462.19 154.532 2465.98 150.787 2469.81 131.16C2469.9 130.664 2470.62 130.664 2470.71 131.16C2474.55 150.742 2478.29 154.532 2497.92 158.367C2498.41 158.457 2498.41 159.179 2497.92 159.269C2478.34 163.104 2474.55 166.849 2470.71 186.476C2470.62 186.972 2469.9 186.972 2469.81 186.476C2465.98 166.894 2462.23 163.104 2442.61 159.269C2442.11 159.179 2442.11 158.457 2442.61 158.367Z" fill="url(#paint10_linear_60_252)"/>
<path d="M2504.73 120.196C2562.98 108.511 2575.29 96.1932 2586.98 37.9449C2587.43 35.6889 2590.63 35.6889 2591.08 37.9449C2602.77 96.1932 2615.09 108.511 2673.33 120.196C2675.59 120.648 2675.59 123.851 2673.33 124.302C2615.09 135.988 2602.77 148.305 2591.08 206.554C2590.63 208.81 2587.43 208.81 2586.98 206.554C2575.29 148.305 2562.98 135.988 2504.73 124.302C2502.48 123.851 2502.48 120.648 2504.73 120.196Z" fill="url(#paint11_linear_60_252)"/>
</g>
<defs>
<linearGradient id="paint0_linear_60_252" x1="929.259" y1="914.057" x2="929.259" y2="239.445" gradientUnits="userSpaceOnUse">
<stop stop-color="#05384D"/>
<stop offset="1" stop-color="#0C8BC0"/>
</linearGradient>
<linearGradient id="paint1_linear_60_252" x1="1481.23" y1="890.636" x2="1481.23" y2="254.605" gradientUnits="userSpaceOnUse">
<stop stop-color="#05384D"/>
<stop offset="1" stop-color="#0C8BC0"/>
</linearGradient>
<linearGradient id="paint2_linear_60_252" x1="2591.21" y1="878.378" x2="2591.21" y2="244.363" gradientUnits="userSpaceOnUse">
<stop stop-color="#05384D"/>
<stop offset="1" stop-color="#0C8BC0"/>
</linearGradient>
<linearGradient id="paint3_linear_60_252" x1="924.078" y1="616.71" x2="924.078" y2="462.062" gradientUnits="userSpaceOnUse">
<stop stop-color="#05384D"/>
<stop offset="1" stop-color="#0C8BC0"/>
</linearGradient>
<linearGradient id="paint4_linear_60_252" x1="309.456" y1="593.654" x2="309.456" y2="439.006" gradientUnits="userSpaceOnUse">
<stop stop-color="#05384D"/>
<stop offset="1" stop-color="#0C8BC0"/>
</linearGradient>
<linearGradient id="paint5_linear_60_252" x1="307.49" y1="963.244" x2="307.49" y2="21.5669" gradientUnits="userSpaceOnUse">
<stop stop-color="#05384D"/>
<stop offset="1" stop-color="#0C8BC0"/>
</linearGradient>
<linearGradient id="paint6_linear_60_252" x1="2126.41" y1="929.589" x2="2126.41" y2="54.7741" gradientUnits="userSpaceOnUse">
<stop stop-color="#05384D"/>
<stop offset="1" stop-color="#0C8BC0"/>
</linearGradient>
<linearGradient id="paint7_linear_60_252" x1="596.477" y1="1113.02" x2="596.477" y2="891.908" gradientUnits="userSpaceOnUse">
<stop stop-color="#05384D"/>
<stop offset="1" stop-color="#0C8BC0"/>
</linearGradient>
<linearGradient id="paint8_linear_60_252" x1="840.691" y1="1018.66" x2="840.691" y2="875.368" gradientUnits="userSpaceOnUse">
<stop stop-color="#05384D"/>
<stop offset="1" stop-color="#0C8BC0"/>
</linearGradient>
<linearGradient id="paint9_linear_60_252" x1="2503.19" y1="117.975" x2="2503.19" y2="-4.8401e-06" gradientUnits="userSpaceOnUse">
<stop stop-color="#05384D"/>
<stop offset="1" stop-color="#0C8BC0"/>
</linearGradient>
<linearGradient id="paint10_linear_60_252" x1="2470.24" y1="198.494" x2="2470.24" y2="130.788" gradientUnits="userSpaceOnUse">
<stop stop-color="#05384D"/>
<stop offset="1" stop-color="#0C8BC0"/>
</linearGradient>
<linearGradient id="paint11_linear_60_252" x1="2588.97" y1="243.977" x2="2588.97" y2="36.2529" gradientUnits="userSpaceOnUse">
<stop stop-color="#05384D"/>
<stop offset="1" stop-color="#0C8BC0"/>
</linearGradient>
<clipPath id="clip0_60_252">
<rect width="2675" height="1075" fill="white"/>
</clipPath>
</defs>
</svg>
